<svg xmlns="http://www.w3.org/2000/svg" width="128" height="128" data-name="Layer 1"><path d="M110.948 33.299 67.845 59.946a6.115 6.115 0 0 1-6.902-.02L17.038 33.29a2 2 0 0 0-2.076 3.42l43.851 26.602a10.247 10.247 0 0 0 5.61 1.694 10.112 10.112 0 0 0 5.573-1.688l43.056-26.617a2 2 0 1 0-2.104-3.402zM16.001 95a1.985 1.985 0 0 0 1.207-.406l33-25a2 2 0 1 0-2.415-3.188l-33 25A2 2 0 0 0 16 95zm64.217-28.594a2 2 0 1 0-2.415 3.188l33 25a2 2 0 1 0 2.415-3.188z"/><path d="M119.236 23H8.764A8.809 8.809 0 0 0 0 31.833v64.334A8.809 8.809 0 0 0 8.764 105h37.994a6.895 6.895 0 0 1-.758-3.13V101H8.764A4.804 4.804 0 0 1 4 96.167V31.833A4.804 4.804 0 0 1 8.764 27h110.472A4.804 4.804 0 0 1 124 31.833v64.334a4.804 4.804 0 0 1-4.764 4.833H82v.87a6.895 6.895 0 0 1-.758 3.13h37.994A8.809 8.809 0 0 0 128 96.167V31.833A8.809 8.809 0 0 0 119.236 23Z"/><path d="M64 91a2 2 0 0 0-2 2v2a2 2 0 0 0 4 0v-2a2 2 0 0 0-2-2Z"/><path d="M74.64 81H73v-3.923A8.038 8.038 0 0 0 65 69h-2a8.038 8.038 0 0 0-8 8.077V81h-1.64A3.251 3.251 0 0 0 50 84.13v17.74a3.251 3.251 0 0 0 3.36 3.13h21.28a3.251 3.251 0 0 0 3.36-3.13V84.13A3.251 3.251 0 0 0 74.64 81ZM59 77.077A4.043 4.043 0 0 1 63 73h2a4.043 4.043 0 0 1 4 4.077V81H59ZM74 101H54V85h20Z"/></svg>